<?xml version="1.0" encoding="UTF-8" standalone="no"?>
<svg
   width="13.562"
   height="13.563"
   viewBox="0 0 13.562 13.563"
   fill="none"
   version="1.1"
   id="svg4"
   sodipodi:docname="ball.svg"
   inkscape:version="1.1.2 (b8e25be833, 2022-02-05)"
   xmlns:inkscape="http://www.inkscape.org/namespaces/inkscape"
   xmlns:sodipodi="http://sodipodi.sourceforge.net/DTD/sodipodi-0.dtd"
   xmlns="http://www.w3.org/2000/svg"
   xmlns:svg="http://www.w3.org/2000/svg">
  <defs
     id="defs8" />
  <sodipodi:namedview
     id="namedview6"
     pagecolor="#ffffff"
     bordercolor="#666666"
     borderopacity="1.0"
     inkscape:pageshadow="2"
     inkscape:pageopacity="0.0"
     inkscape:pagecheckerboard="0"
     showgrid="false"
     inkscape:zoom="8.16934"
     inkscape:cx="39.048442"
     inkscape:cy="16.402794"
     inkscape:window-width="1920"
     inkscape:window-height="1017"
     inkscape:window-x="-8"
     inkscape:window-y="-8"
     inkscape:window-maximized="1"
     inkscape:current-layer="svg4" />
  <path
     d="m 6.78105,0 c 3.718563,0 6.78095,3.062496 6.78095,6.781246 0,3.74606 -3.062387,6.78126 -6.78095,6.78126 C 3.0350881,13.562506 0,10.527306 0,6.781246 0,3.062496 3.0350881,0 6.78105,0 Z m 4.456836,3.144536 c -0.109396,0.16406 -1.066361,1.39453 -3.2264814,2.26953 0.218792,0.4375 0.3554869,0.76562 0.5195809,1.14843 1.9139295,-0.24609 3.8279585,0.13672 4.0193515,0.19141 0,-1.36719 -0.492182,-2.625 -1.312451,-3.60937 z m -0.628877,-0.6836 C 9.1871613,1.203126 7.2458329,0.73828601 5.4139004,1.175786 c 0.163994,0.21875 1.2030556,1.64062 2.1600204,3.39062 2.0507246,-0.76562 2.9256922,-1.94141 3.0350882,-2.10547 z M 4.2928417,1.558596 c -1.6132405,0.76562 -2.8162961,2.26953 -3.199182,4.04687 0.2734899,0.02735 2.6523022,0.02735 5.3592024,-0.68359 C 5.4958974,3.199216 4.4568357,1.777346 4.2928417,1.558596 Z m -3.30847795,5.25 c 0,1.47656 0.54687975,2.8437099 1.47644555,3.85551 0.9296657,-1.586 2.8436951,-3.28129 4.9491175,-3.88286 -0.1640939,-0.32812 -0.3007889,-0.65625 -0.4921818,-0.98437 -2.8709942,0.875 -5.6872904,0.84766 -5.93338125,0.82031 z m 2.21471835,4.56641 c 1.7226364,1.3398 3.9647538,1.5586 5.8239852,0.7656 -0.081997,-0.5195 -0.4100848,-2.2969001 -1.2303546,-4.40232 -2.3242143,0.79296 -3.9647538,2.40622 -4.5936306,3.63672 z m 6.8083489,0.2187 c 1.285153,-0.875 2.214818,-2.2695001 2.488208,-3.88277 -0.218792,-0.05469 -1.804633,-0.51953 -3.6092666,-0.24609 0.738273,2.1054599 1.0663609,3.80076 1.1210586,4.12886 z"
     fill="#c4c4c4"
     id="path2"
     sodipodi:nodetypes="ssssscccccccccccccsccccscccccccc"
     style="stroke-width:0.999982" />
</svg>
