<?xml version="1.0" encoding="UTF-8" standalone="no"?>
<svg
   width="15.75"
   height="9.8710003"
   viewBox="0 0 15.75 9.8710003"
   fill="none"
   version="1.1"
   id="svg4"
   sodipodi:docname="behance.svg"
   inkscape:version="1.1.2 (b8e25be833, 2022-02-05)"
   xmlns:inkscape="http://www.inkscape.org/namespaces/inkscape"
   xmlns:sodipodi="http://sodipodi.sourceforge.net/DTD/sodipodi-0.dtd"
   xmlns="http://www.w3.org/2000/svg"
   xmlns:svg="http://www.w3.org/2000/svg">
  <defs
     id="defs8" />
  <sodipodi:namedview
     id="namedview6"
     pagecolor="#ffffff"
     bordercolor="#666666"
     borderopacity="1.0"
     inkscape:pageshadow="2"
     inkscape:pageopacity="0.0"
     inkscape:pagecheckerboard="0"
     showgrid="false"
     inkscape:zoom="16.33868"
     inkscape:cx="27.970436"
     inkscape:cy="2.5705871"
     inkscape:window-width="1920"
     inkscape:window-height="1017"
     inkscape:window-x="-8"
     inkscape:window-y="-8"
     inkscape:window-maximized="1"
     inkscape:current-layer="svg4" />
  <path
     d="m 6.3437,4.42969 c 1.1758,0.32812 1.75,1.23047 1.75,2.43359 0,1.96875 -1.6406,2.81645 -3.4179,2.81645 H 0 V 0 h 4.5664 c 1.6406,0 3.0899,0.46484 3.0899,2.40625 0,0.95703 -0.4649,1.58594 -1.3126,2.02344 z M 2.1055,1.64062 v 2.26954 h 2.1601 c 0.7657,0 1.3125,-0.32813 1.3125,-1.14844 0,-0.90235 -0.6836,-1.1211 -1.4492,-1.1211 z m 2.2968,6.39841 c 0.8477,0 1.5586,-0.3007 1.5586,-1.28512 0,-0.98438 -0.5742,-1.39454 -1.5312,-1.39454 H 2.1055 V 8.03903 Z M 14.1914,1.44922 H 10.2813 V 0.49219 h 3.9101 z M 15.75,6.28906 c 0,0.10938 -0.0273,0.2461 -0.0273,0.35547 h -5.0586 c 0,1.1211 0.6015,1.7773 1.7226,1.7773 0.5742,0 1.3399,-0.3007 1.5313,-0.9023 h 1.6953 C 15.0937,9.10543 14,9.87113 12.332,9.87113 c -2.2148,0 -3.6093,-1.5039 -3.6093,-3.69144 0,-2.10547 1.4492,-3.71875 3.6093,-3.71875 2.1875,0 3.418,1.75 3.418,3.82812 z m -5.0859,-0.875 h 3.1445 C 13.7266,4.48437 13.2344,3.9375 12.25,3.9375 c -0.9023,0 -1.5313,0.57422 -1.5859,1.47656 z"
     fill="#c4c4c4"
     id="path2"
     sodipodi:nodetypes="cssccsscccssscsssccscccccsccsccssssccsc" />
</svg>
