<svg width="1920" height="1058" viewBox="0 0 1920 1058" fill="none" xmlns="http://www.w3.org/2000/svg">
<rect y="95" width="1920" height="961" fill="#130C3A"/>
<path d="M419.752 149.133C405.036 128.941 382.902 115.423 358.219 111.55C333.535 107.678 308.325 113.77 288.133 128.486C267.941 143.201 254.422 165.336 250.55 190.019C246.678 214.702 252.77 239.913 267.486 260.105L343.619 204.619L419.752 149.133Z" fill="#FF9D0A"/>
<path d="M1423.4 94.9972C1423.5 119.982 1433.53 143.902 1451.27 161.495C1469.01 179.088 1493.01 188.912 1518 188.807C1542.98 188.703 1566.9 178.677 1584.49 160.935C1602.09 143.194 1611.91 119.191 1611.81 94.206L1517.6 94.6016L1423.4 94.9972Z" fill="#0555FF"/>
<circle cx="176.334" cy="453.999" r="4.21763" transform="rotate(-90.3282 176.334 453.999)" fill="white" fill-opacity="0.05"/>
<circle cx="147.235" cy="454.048" r="4.21763" transform="rotate(-90.3282 147.235 454.048)" fill="white" fill-opacity="0.05"/>
<circle cx="176.334" cy="158.766" r="4.21763" transform="rotate(-90.3282 176.334 158.766)" fill="white" fill-opacity="0.05"/>
<circle cx="147.235" cy="158.814" r="4.21763" transform="rotate(-90.3282 147.235 158.814)" fill="white" fill-opacity="0.05"/>
<circle cx="176.334" cy="129.242" r="4.21763" transform="rotate(-90.3282 176.334 129.242)" fill="white" fill-opacity="0.05"/>
<circle cx="147.235" cy="129.291" r="4.21763" transform="rotate(-90.3282 147.235 129.291)" fill="white" fill-opacity="0.05"/>
<circle cx="176.758" cy="424.524" r="4.21763" transform="rotate(-90.3282 176.758 424.524)" fill="white" fill-opacity="0.05"/>
<circle cx="147.659" cy="424.573" r="4.21763" transform="rotate(-90.3282 147.659 424.573)" fill="white" fill-opacity="0.05"/>
<circle cx="176.758" cy="395.001" r="4.21763" transform="rotate(-90.3282 176.758 395.001)" fill="white" fill-opacity="0.05"/>
<circle cx="147.659" cy="395.049" r="4.21763" transform="rotate(-90.3282 147.659 395.049)" fill="white" fill-opacity="0.05"/>
<circle cx="176.758" cy="365.478" r="4.21763" transform="rotate(-90.3282 176.758 365.478)" fill="white" fill-opacity="0.05"/>
<circle cx="147.659" cy="365.526" r="4.21763" transform="rotate(-90.3282 147.659 365.526)" fill="white" fill-opacity="0.05"/>
<circle cx="176.758" cy="335.954" r="4.21763" transform="rotate(-90.3282 176.758 335.954)" fill="white" fill-opacity="0.05"/>
<circle cx="147.659" cy="336.003" r="4.21763" transform="rotate(-90.3282 147.659 336.003)" fill="white" fill-opacity="0.05"/>
<circle cx="176.758" cy="306.43" r="4.21763" transform="rotate(-90.3282 176.758 306.43)" fill="white" fill-opacity="0.05"/>
<circle cx="147.659" cy="306.479" r="4.21763" transform="rotate(-90.3282 147.659 306.479)" fill="white" fill-opacity="0.05"/>
<circle cx="176.758" cy="276.907" r="4.21763" transform="rotate(-90.3282 176.758 276.907)" fill="white" fill-opacity="0.05"/>
<circle cx="147.659" cy="276.956" r="4.21763" transform="rotate(-90.3282 147.659 276.956)" fill="white" fill-opacity="0.05"/>
<circle cx="176.758" cy="247.384" r="4.21763" transform="rotate(-90.3282 176.758 247.384)" fill="white" fill-opacity="0.05"/>
<circle cx="147.659" cy="247.432" r="4.21763" transform="rotate(-90.3282 147.659 247.432)" fill="white" fill-opacity="0.05"/>
<circle cx="176.758" cy="217.86" r="4.21763" transform="rotate(-90.3282 176.758 217.86)" fill="white" fill-opacity="0.05"/>
<circle cx="147.659" cy="217.909" r="4.21763" transform="rotate(-90.3282 147.659 217.909)" fill="white" fill-opacity="0.05"/>
<circle cx="176.758" cy="188.336" r="4.21763" transform="rotate(-90.3282 176.758 188.336)" fill="white" fill-opacity="0.05"/>
<circle cx="147.659" cy="188.385" r="4.21763" transform="rotate(-90.3282 147.659 188.385)" fill="white" fill-opacity="0.05"/>
<circle cx="64.9912" cy="454.048" r="4.21763" transform="rotate(-90.3282 64.9912 454.048)" fill="white" fill-opacity="0.05"/>
<circle cx="35.8918" cy="454.097" r="4.21763" transform="rotate(-90.3282 35.8918 454.097)" fill="white" fill-opacity="0.05"/>
<circle cx="64.9912" cy="158.814" r="4.21763" transform="rotate(-90.3282 64.9912 158.814)" fill="white" fill-opacity="0.05"/>
<circle cx="35.8918" cy="158.863" r="4.21763" transform="rotate(-90.3282 35.8918 158.863)" fill="white" fill-opacity="0.05"/>
<circle cx="64.9912" cy="129.29" r="4.21763" transform="rotate(-90.3282 64.9912 129.29)" fill="white" fill-opacity="0.05"/>
<circle cx="35.8918" cy="129.338" r="4.21763" transform="rotate(-90.3282 35.8918 129.338)" fill="white" fill-opacity="0.05"/>
<circle cx="65.4151" cy="424.573" r="4.21763" transform="rotate(-90.3282 65.4151 424.573)" fill="white" fill-opacity="0.05"/>
<circle cx="36.3157" cy="424.622" r="4.21763" transform="rotate(-90.3282 36.3157 424.622)" fill="white" fill-opacity="0.05"/>
<circle cx="65.4151" cy="395.049" r="4.21763" transform="rotate(-90.3282 65.4151 395.049)" fill="white" fill-opacity="0.05"/>
<circle cx="36.3157" cy="395.097" r="4.21763" transform="rotate(-90.3282 36.3157 395.097)" fill="white" fill-opacity="0.05"/>
<circle cx="65.4151" cy="365.526" r="4.21763" transform="rotate(-90.3282 65.4151 365.526)" fill="white" fill-opacity="0.05"/>
<circle cx="36.3157" cy="365.575" r="4.21763" transform="rotate(-90.3282 36.3157 365.575)" fill="white" fill-opacity="0.05"/>
<circle cx="65.4151" cy="336.003" r="4.21763" transform="rotate(-90.3282 65.4151 336.003)" fill="white" fill-opacity="0.05"/>
<circle cx="36.3157" cy="336.051" r="4.21763" transform="rotate(-90.3282 36.3157 336.051)" fill="white" fill-opacity="0.05"/>
<circle cx="65.4151" cy="306.478" r="4.21763" transform="rotate(-90.3282 65.4151 306.478)" fill="white" fill-opacity="0.05"/>
<circle cx="36.3157" cy="306.527" r="4.21763" transform="rotate(-90.3282 36.3157 306.527)" fill="white" fill-opacity="0.05"/>
<circle cx="65.4151" cy="276.956" r="4.21763" transform="rotate(-90.3282 65.4151 276.956)" fill="white" fill-opacity="0.05"/>
<circle cx="36.3157" cy="277.005" r="4.21763" transform="rotate(-90.3282 36.3157 277.005)" fill="white" fill-opacity="0.05"/>
<circle cx="65.4151" cy="247.432" r="4.21763" transform="rotate(-90.3282 65.4151 247.432)" fill="white" fill-opacity="0.05"/>
<circle cx="36.3157" cy="247.481" r="4.21763" transform="rotate(-90.3282 36.3157 247.481)" fill="white" fill-opacity="0.05"/>
<circle cx="65.4151" cy="217.908" r="4.21763" transform="rotate(-90.3282 65.4151 217.908)" fill="white" fill-opacity="0.05"/>
<circle cx="36.3157" cy="217.957" r="4.21763" transform="rotate(-90.3282 36.3157 217.957)" fill="white" fill-opacity="0.05"/>
<circle cx="65.4151" cy="188.385" r="4.21763" transform="rotate(-90.3282 65.4151 188.385)" fill="white" fill-opacity="0.05"/>
<circle cx="36.3157" cy="188.434" r="4.21763" transform="rotate(-90.3282 36.3157 188.434)" fill="white" fill-opacity="0.05"/>
<circle cx="121.929" cy="454.048" r="4.21763" transform="rotate(-90.3282 121.929 454.048)" fill="white" fill-opacity="0.05"/>
<circle cx="92.8298" cy="454.097" r="4.21763" transform="rotate(-90.3282 92.8298 454.097)" fill="white" fill-opacity="0.05"/>
<circle cx="121.929" cy="158.814" r="4.21763" transform="rotate(-90.3282 121.929 158.814)" fill="white" fill-opacity="0.05"/>
<circle cx="92.8298" cy="158.863" r="4.21763" transform="rotate(-90.3282 92.8298 158.863)" fill="white" fill-opacity="0.05"/>
<circle cx="121.929" cy="129.29" r="4.21763" transform="rotate(-90.3282 121.929 129.29)" fill="white" fill-opacity="0.05"/>
<circle cx="92.8298" cy="129.338" r="4.21763" transform="rotate(-90.3282 92.8298 129.338)" fill="white" fill-opacity="0.05"/>
<circle cx="122.353" cy="424.573" r="4.21763" transform="rotate(-90.3282 122.353 424.573)" fill="white" fill-opacity="0.05"/>
<circle cx="93.2538" cy="424.622" r="4.21763" transform="rotate(-90.3282 93.2538 424.622)" fill="white" fill-opacity="0.05"/>
<circle cx="122.353" cy="395.049" r="4.21763" transform="rotate(-90.3282 122.353 395.049)" fill="white" fill-opacity="0.05"/>
<circle cx="93.2537" cy="395.097" r="4.21763" transform="rotate(-90.3282 93.2537 395.097)" fill="white" fill-opacity="0.05"/>
<circle cx="122.353" cy="365.526" r="4.21763" transform="rotate(-90.3282 122.353 365.526)" fill="white" fill-opacity="0.05"/>
<circle cx="93.2538" cy="365.575" r="4.21763" transform="rotate(-90.3282 93.2538 365.575)" fill="white" fill-opacity="0.05"/>
<circle cx="122.353" cy="336.003" r="4.21763" transform="rotate(-90.3282 122.353 336.003)" fill="white" fill-opacity="0.05"/>
<circle cx="93.2538" cy="336.051" r="4.21763" transform="rotate(-90.3282 93.2538 336.051)" fill="white" fill-opacity="0.05"/>
<circle cx="122.353" cy="306.478" r="4.21763" transform="rotate(-90.3282 122.353 306.478)" fill="white" fill-opacity="0.05"/>
<circle cx="93.2537" cy="306.527" r="4.21763" transform="rotate(-90.3282 93.2537 306.527)" fill="white" fill-opacity="0.05"/>
<circle cx="122.353" cy="276.956" r="4.21763" transform="rotate(-90.3282 122.353 276.956)" fill="white" fill-opacity="0.05"/>
<circle cx="93.2538" cy="277.005" r="4.21763" transform="rotate(-90.3282 93.2538 277.005)" fill="white" fill-opacity="0.05"/>
<circle cx="122.353" cy="247.432" r="4.21763" transform="rotate(-90.3282 122.353 247.432)" fill="white" fill-opacity="0.05"/>
<circle cx="93.2538" cy="247.481" r="4.21763" transform="rotate(-90.3282 93.2538 247.481)" fill="white" fill-opacity="0.05"/>
<circle cx="122.353" cy="217.908" r="4.21763" transform="rotate(-90.3282 122.353 217.908)" fill="white" fill-opacity="0.05"/>
<circle cx="93.2537" cy="217.957" r="4.21763" transform="rotate(-90.3282 93.2537 217.957)" fill="white" fill-opacity="0.05"/>
<circle cx="122.353" cy="188.385" r="4.21763" transform="rotate(-90.3282 122.353 188.385)" fill="white" fill-opacity="0.05"/>
<circle cx="93.2538" cy="188.434" r="4.21763" transform="rotate(-90.3282 93.2538 188.434)" fill="white" fill-opacity="0.05"/>
<circle cx="10.586" cy="454.097" r="4.21763" transform="rotate(-90.3282 10.586 454.097)" fill="white" fill-opacity="0.05"/>
<circle cx="10.586" cy="158.862" r="4.21763" transform="rotate(-90.3282 10.586 158.862)" fill="white" fill-opacity="0.05"/>
<circle cx="10.5859" cy="129.338" r="4.21763" transform="rotate(-90.3282 10.5859 129.338)" fill="white" fill-opacity="0.05"/>
<circle cx="11.0099" cy="424.621" r="4.21763" transform="rotate(-90.3282 11.0099 424.621)" fill="white" fill-opacity="0.05"/>
<circle cx="11.0099" cy="395.097" r="4.21763" transform="rotate(-90.3282 11.0099 395.097)" fill="white" fill-opacity="0.05"/>
<circle cx="11.0099" cy="365.575" r="4.21763" transform="rotate(-90.3282 11.0099 365.575)" fill="white" fill-opacity="0.05"/>
<circle cx="11.0099" cy="336.051" r="4.21763" transform="rotate(-90.3282 11.0099 336.051)" fill="white" fill-opacity="0.05"/>
<circle cx="11.0099" cy="306.527" r="4.21763" transform="rotate(-90.3282 11.0099 306.527)" fill="white" fill-opacity="0.05"/>
<circle cx="11.0099" cy="277.005" r="4.21763" transform="rotate(-90.3282 11.0099 277.005)" fill="white" fill-opacity="0.05"/>
<circle cx="11.0099" cy="247.48" r="4.21763" transform="rotate(-90.3282 11.0099 247.48)" fill="white" fill-opacity="0.05"/>
<circle cx="11.0099" cy="217.957" r="4.21763" transform="rotate(-90.3282 11.0099 217.957)" fill="white" fill-opacity="0.05"/>
<circle cx="11.0099" cy="188.434" r="4.21763" transform="rotate(-90.3282 11.0099 188.434)" fill="white" fill-opacity="0.05"/>
<circle cx="1904.5" cy="589.5" r="124.5" stroke="white" stroke-opacity="0.05" stroke-width="40"/>
<circle cx="15" cy="883" r="175" fill="white" fill-opacity="0.03"/>
</svg>
