<svg width="113" height="28" viewBox="0 0 113 28" fill="none" xmlns="http://www.w3.org/2000/svg">
<path d="M17.5117 12.0938V15.5918H3.92383V12.0938H17.5117ZM5.01367 1.40625V27H0.601562V1.40625H5.01367ZM20.9043 1.40625V27H16.5098V1.40625H20.9043ZM34.123 27.3516C32.7168 27.3516 31.4453 27.123 30.3086 26.666C29.1836 26.1973 28.2227 25.5469 27.4258 24.7148C26.6406 23.8828 26.0371 22.9043 25.6152 21.7793C25.1934 20.6543 24.9824 19.4414 24.9824 18.1406V17.4375C24.9824 15.9492 25.1992 14.6016 25.6328 13.3945C26.0664 12.1875 26.6699 11.1562 27.4434 10.3008C28.2168 9.43359 29.1309 8.77148 30.1855 8.31445C31.2402 7.85742 32.3828 7.62891 33.6133 7.62891C34.9727 7.62891 36.1621 7.85742 37.1816 8.31445C38.2012 8.77148 39.0449 9.41602 39.7129 10.248C40.3926 11.0684 40.8965 12.0469 41.2246 13.1836C41.5645 14.3203 41.7344 15.5742 41.7344 16.9453V18.7559H27.0391V15.7148H37.5508V15.3809C37.5273 14.6191 37.375 13.9043 37.0938 13.2363C36.8242 12.5684 36.4082 12.0293 35.8457 11.6191C35.2832 11.209 34.5332 11.0039 33.5957 11.0039C32.8926 11.0039 32.2656 11.1562 31.7148 11.4609C31.1758 11.7539 30.7246 12.1816 30.3613 12.7441C29.998 13.3066 29.7168 13.9863 29.5176 14.7832C29.3301 15.5684 29.2363 16.4531 29.2363 17.4375V18.1406C29.2363 18.9727 29.3477 19.7461 29.5703 20.4609C29.8047 21.1641 30.1445 21.7793 30.5898 22.3066C31.0352 22.834 31.5742 23.25 32.207 23.5547C32.8398 23.8477 33.5605 23.9941 34.3691 23.9941C35.3887 23.9941 36.2969 23.7891 37.0938 23.3789C37.8906 22.9688 38.582 22.3887 39.168 21.6387L41.4004 23.8008C40.9902 24.3984 40.457 24.9727 39.8008 25.5234C39.1445 26.0625 38.3418 26.502 37.3926 26.8418C36.4551 27.1816 35.3652 27.3516 34.123 27.3516ZM49.5742 0V27H45.3203V0H49.5742ZM58.75 0V27H54.4961V0H58.75ZM62.582 17.7012V17.2969C62.582 15.9258 62.7812 14.6543 63.1797 13.4824C63.5781 12.2988 64.1523 11.2734 64.9023 10.4062C65.6641 9.52734 66.5898 8.84766 67.6797 8.36719C68.7812 7.875 70.0234 7.62891 71.4062 7.62891C72.8008 7.62891 74.043 7.875 75.1328 8.36719C76.2344 8.84766 77.166 9.52734 77.9277 10.4062C78.6895 11.2734 79.2695 12.2988 79.668 13.4824C80.0664 14.6543 80.2656 15.9258 80.2656 17.2969V17.7012C80.2656 19.0723 80.0664 20.3438 79.668 21.5156C79.2695 22.6875 78.6895 23.7129 77.9277 24.5918C77.166 25.459 76.2402 26.1387 75.1504 26.6309C74.0605 27.1113 72.8242 27.3516 71.4414 27.3516C70.0469 27.3516 68.7988 27.1113 67.6973 26.6309C66.6074 26.1387 65.6816 25.459 64.9199 24.5918C64.1582 23.7129 63.5781 22.6875 63.1797 21.5156C62.7812 20.3438 62.582 19.0723 62.582 17.7012ZM66.8184 17.2969V17.7012C66.8184 18.5566 66.9062 19.3652 67.082 20.127C67.2578 20.8887 67.5332 21.5566 67.9082 22.1309C68.2832 22.7051 68.7637 23.1562 69.3496 23.4844C69.9355 23.8125 70.6328 23.9766 71.4414 23.9766C72.2266 23.9766 72.9062 23.8125 73.4805 23.4844C74.0664 23.1562 74.5469 22.7051 74.9219 22.1309C75.2969 21.5566 75.5723 20.8887 75.748 20.127C75.9355 19.3652 76.0293 18.5566 76.0293 17.7012V17.2969C76.0293 16.4531 75.9355 15.6562 75.748 14.9062C75.5723 14.1445 75.291 13.4707 74.9043 12.8848C74.5293 12.2988 74.0488 11.8418 73.4629 11.5137C72.8887 11.1738 72.2031 11.0039 71.4062 11.0039C70.6094 11.0039 69.918 11.1738 69.332 11.5137C68.7578 11.8418 68.2832 12.2988 67.9082 12.8848C67.5332 13.4707 67.2578 14.1445 67.082 14.9062C66.9062 15.6562 66.8184 16.4531 66.8184 17.2969ZM98.5996 1.40625H102.994V18.5098C102.994 20.4551 102.572 22.084 101.729 23.3965C100.885 24.709 99.7363 25.6992 98.2832 26.3672C96.8418 27.0234 95.2305 27.3516 93.4492 27.3516C91.6094 27.3516 89.9688 27.0234 88.5273 26.3672C87.0859 25.6992 85.9492 24.709 85.1172 23.3965C84.2969 22.084 83.8867 20.4551 83.8867 18.5098V1.40625H88.2812V18.5098C88.2812 19.7402 88.4922 20.7539 88.9141 21.5508C89.3359 22.3359 89.9336 22.916 90.707 23.291C91.4805 23.666 92.3945 23.8535 93.4492 23.8535C94.5039 23.8535 95.4121 23.666 96.1738 23.291C96.9473 22.916 97.5449 22.3359 97.9668 21.5508C98.3887 20.7539 98.5996 19.7402 98.5996 18.5098V1.40625ZM112.504 1.40625V27H108.092V1.40625H112.504Z" fill="black"/>
</svg>
