<svg width="109" height="27" viewBox="0 0 109 27" fill="none" xmlns="http://www.w3.org/2000/svg">
<path d="M11.8168 6.49314H15.9432C15.8835 2.86388 12.9006 0.358198 8.36648 0.358198C3.90199 0.358198 0.630682 2.82411 0.650568 6.52297C0.640625 9.52581 2.75852 11.246 6.19886 12.0713L8.41619 12.6281C10.6335 13.165 11.8665 13.8014 11.8764 15.1735C11.8665 16.665 10.4545 17.6792 8.26705 17.6792C6.02983 17.6792 4.41903 16.6451 4.27983 14.6068H0.113636C0.223011 19.0116 3.375 21.2886 8.31676 21.2886C13.2884 21.2886 16.2116 18.9122 16.2216 15.1835C16.2116 11.7929 13.6562 9.99314 10.1165 9.19769L8.28693 8.76019C6.51705 8.35252 5.03551 7.69627 5.06534 6.23462C5.06534 4.92212 6.22869 3.95763 8.33665 3.95763C10.3949 3.95763 11.6577 4.89229 11.8168 6.49314ZM19.038 26.7275H23.2738V18.5542H23.4031C23.9897 19.8269 25.2724 21.2488 27.7383 21.2488C31.2184 21.2488 33.9329 18.4946 33.9329 13.3838C33.9329 8.13377 31.0991 5.52865 27.7482 5.52865C25.1928 5.52865 23.9698 7.04996 23.4031 8.29286H23.2141V5.72752H19.038V26.7275ZM23.1843 13.3639C23.1843 10.6394 24.3377 8.89939 26.396 8.89939C28.494 8.89939 29.6076 10.719 29.6076 13.3639C29.6076 16.0287 28.4741 17.8781 26.396 17.8781C24.3576 17.8781 23.1843 16.0883 23.1843 13.3639ZM43.717 21.2985C47.4954 21.2985 50.0408 19.4591 50.6374 16.6252L46.7198 16.3667C46.2923 17.5301 45.1985 18.1366 43.7866 18.1366C41.6687 18.1366 40.3263 16.7346 40.3263 14.4576V14.4477H50.7269V13.2843C50.7269 8.09399 47.5849 5.52865 43.5479 5.52865C39.0536 5.52865 36.1403 8.72041 36.1403 13.4335C36.1403 18.2758 39.0138 21.2985 43.717 21.2985ZM40.3263 11.8227C40.4158 10.0826 41.7383 8.69058 43.6175 8.69058C45.457 8.69058 46.7298 10.0031 46.7397 11.8227H40.3263ZM57.7269 0.636607H53.4911V21.0002H57.7269V0.636607ZM65.3558 0.636607H61.12V21.0002H65.3558V0.636607ZM75.6495 21.2985C80.283 21.2985 83.1665 18.1267 83.1665 13.4235C83.1665 8.69058 80.283 5.52865 75.6495 5.52865C71.016 5.52865 68.1325 8.69058 68.1325 13.4235C68.1325 18.1267 71.016 21.2985 75.6495 21.2985ZM75.6694 18.0173C73.5316 18.0173 72.4379 16.0585 72.4379 13.3937C72.4379 10.7289 73.5316 8.76019 75.6694 8.76019C77.7674 8.76019 78.8612 10.7289 78.8612 13.3937C78.8612 16.0585 77.7674 18.0173 75.6694 18.0173ZM90.1566 12.1707C90.1665 10.2019 91.3398 9.04854 93.0501 9.04854C94.7504 9.04854 95.7745 10.1622 95.7646 12.0315V21.0002H100V11.2758C100 7.71615 97.9123 5.52865 94.7305 5.52865C92.4634 5.52865 90.8228 6.64229 90.1367 8.42212H89.9577V5.72752H85.9208V21.0002H90.1566V12.1707ZM105.815 21.2588C107.087 21.2588 108.191 20.1948 108.201 18.8724C108.191 17.5698 107.087 16.5059 105.815 16.5059C104.502 16.5059 103.418 17.5698 103.428 18.8724C103.418 20.1948 104.502 21.2588 105.815 21.2588Z" fill="white"/>
</svg>
